<?xml version="1.0" encoding="utf-8"?>
<!-- Generator: Adobe Illustrator 21.1.0, SVG Export Plug-In . SVG Version: 6.00 Build 0)  -->
<svg version="1.1" id="Capa_1" xmlns="http://www.w3.org/2000/svg" xmlns:xlink="http://www.w3.org/1999/xlink" x="0px" y="0px"
	 viewBox="0 0 256 256" style="enable-background:new 0 0 256 256;" xml:space="preserve">
<style type="text/css">
	.st0{fill:#161F3F;}
	.st1{fill:#008594;}
	.st2{fill:#FFDD00;}
	.st3{fill:#38A9BB;}
	.st4{fill:#007D88;}
	.st5{fill:#FAF2D8;}
	.st6{fill:#FFD58F;}
	.st7{fill:#FFFFFF;}
	.st8{fill:#1C9BAB;}
	.st9{fill:#F2E6BB;}
	.st10{fill:#006066;}
	.st11{fill:#006C76;}
	.st12{fill:#E677AA;}
	.st13{fill:#7CBCC7;}
	.st14{fill:#FFE452;}
</style>
<g>
	<g id="XMLID_29_">
		<g>
			<path class="st0" d="M247.3,150.4c0,11.5-6.6,21.5-16.2,26.4c0,0,0,0-0.1,0c-3.5,1.7-7.3,2.7-11.3,3c-2,5.5-4.4,10.7-7.2,15.7
				v-0.1c-17.3,30.1-49.8,50.5-87,50.5c-36,0-67.7-19.1-85.3-47.7c-0.9-1.4-1.7-2.8-2.5-4.3v0c-2.8-5-5.1-10.3-7-15.8
				c-0.9-0.2-1.8-0.4-2.6-0.7c-0.1,0-0.2,0-0.2-0.1c-0.3-0.1-0.5-0.2-0.8-0.3c-11.7-4.2-20.2-15.4-20.2-28.6c0-1.7,0.1-3.3,0.4-4.9
				c0,0,0,0,0,0c1.9-11.6,10.4-20.9,21.4-24.2c11-40.6,46.8-71.1,90.2-74V23.8c0-9.2,7.5-16.7,16.7-16.7c9.2,0,16.7,7.5,16.7,16.7
				V49c34.6,9.6,61.7,37.2,70.5,72.1c0,0,0,0.1,0,0.1C236.6,123.6,247.3,135.8,247.3,150.4z M240.5,150.4c0-9.6-6-17.9-14.4-21.3
				c-0.6-0.3-1.3-0.5-1.9-0.7c-0.1,0-0.1,0-0.2-0.1c-0.2-0.1-0.5-0.1-0.7-0.2c-1.8-0.5-3.7-0.7-5.6-0.7l-0.5,0.1
				c-0.4-2.2-0.9-4.4-1.5-6.6c0-0.1-0.1-0.2-0.1-0.3c-8.6-31-32.7-55.6-63.4-64.7c-2.2-0.7-4.5-1.2-6.8-1.7v-6.5v-0.4V23.8
				c0-2.7-1.1-5.2-2.9-7c-1.8-1.8-4.3-2.9-7-2.9c-5.5,0-9.9,4.4-9.9,9.9v21.6v0.4v5.8c0,0-0.3,0-0.4,0c0,0-0.1,0-0.1,0
				c-1.9,0-3.8,0.1-5.7,0.2c-40,2.4-73.2,30-84,67c-0.2,0.6-0.3,1.2-0.5,1.8c-0.3,1.3-0.7,2.5-1,3.8c-0.1,0.3-0.1,0.6-0.2,1
				c-0.8,0.1-1.6,0.3-2.4,0.5c-1.5,0.4-2.8,0.9-4.2,1.5c-0.1,0-0.2,0.1-0.2,0.1c-0.1,0-0.2,0.1-0.3,0.1c-7.7,3.9-13,11.8-13,21
				c0,8.4,4.4,15.8,11.1,20c0.9,0.6,1.9,1.1,2.9,1.5c0.2,0.1,0.5,0.2,0.7,0.3c0,0,0.1,0,0.1,0c1.3,0.5,2.7,1,4.2,1.2
				c0.5,0.1,1,0.2,1.5,0.2c0.5,0.1,1,0.1,1.6,0.1c0.1,0,0.1,0,0.2,0c0.7,2.3,1.4,4.5,2.3,6.7c0,0,0,0.1,0,0.1
				c0.7,1.9,1.5,3.8,2.4,5.6c0.2,0.5,0.5,1,0.7,1.5c15.1,31.4,47.2,53.1,84.3,53.1c20.6,0,39.6-6.6,55-17.9h0
				c11.6-8.5,21.2-19.6,27.9-32.4c1.5-2.8,2.8-5.7,4-8.7c0.1-0.2,0.1-0.3,0.2-0.5c0-0.1,0-0.1,0.1-0.1c0.5-1.2,0.9-2.4,1.3-3.7
				c0,0,0-0.1,0-0.1c0.3-0.9,0.6-1.7,0.8-2.6c0.9,0.1,1.9,0.2,2.8,0.2c0.9,0,1.8-0.1,2.6-0.1c0.5-0.1,1.1-0.1,1.6-0.2c0,0,0,0,0.1,0
				c0.4-0.1,0.9-0.2,1.3-0.3C233.2,170.1,240.5,161.1,240.5,150.4z"/>
			<path class="st1" d="M226.1,129.2c8.4,3.4,14.4,11.6,14.4,21.3c0,10.7-7.3,19.7-17.3,22.2c1-2.7,1.9-5.5,2.5-8.3
				c1.9-7.7,2.6-15.6,2-23.5c-0.1-1-0.2-2-0.3-3C227.2,134.9,226.8,132,226.1,129.2z"/>
			<path class="st2" d="M227.8,140.8c0.5,7.9-0.1,15.9-2,23.5c-0.7,2.8-1.5,5.6-2.5,8.3c-0.4,0.1-0.9,0.2-1.3,0.3c0,0,0,0-0.1,0
				c-0.5,0.1-1.1,0.2-1.6,0.2c1-2.4,1.8-4.9,2.5-7.5c2.2-8,3.1-16.4,2.5-24.7c-0.1-1.7-0.3-3.3-0.5-4.9c-0.4-2.6-0.8-5.2-1.5-7.7
				c0.3,0.1,0.5,0.1,0.7,0.2c0.1,0,0.1,0,0.2,0.1c0.7,0.2,1.3,0.4,1.9,0.7c0.6,2.8,1.1,5.7,1.4,8.6
				C227.7,138.8,227.7,139.8,227.8,140.8z"/>
			<path class="st1" d="M225.2,140.9c0.6,8.3-0.3,16.7-2.5,24.7c-0.7,2.5-1.5,5-2.5,7.5c-0.9,0.1-1.7,0.1-2.6,0.1
				c-1,0-1.9-0.1-2.8-0.2c0.7-2.2,1.3-4.4,1.8-6.6c1.5-6.7,2.3-13.6,2.3-20.8c0-3.8-0.2-7.6-0.7-11.3c-0.3-2.3-0.6-4.5-1.1-6.7
				l0.5-0.1c1.9,0,3.8,0.2,5.6,0.7c0.6,2.5,1.1,5.1,1.5,7.7C224.9,137.6,225.1,139.3,225.2,140.9z"/>
			<path class="st3" d="M218.9,145.7c0,7.1-0.8,14.1-2.3,20.8c-0.5,2.2-1.1,4.5-1.8,6.6c-0.3,0.9-0.5,1.7-0.8,2.6c0,0,0,0.1,0,0.1
				c-0.4,1.2-0.9,2.5-1.3,3.7c0,0.1,0,0.1-0.1,0.1c-0.1,0.2-0.1,0.3-0.2,0.5c-1.2,3-2.5,5.9-4,8.7c-6.7,12.9-16.3,24-27.9,32.4h0
				C100.8,245.3,65.3,206.6,51,179c2.4-2,4.1-4.5,5.5-7c4.6-8.6,4.1-18.7,3.9-20.7c0.1-0.8,0.1-1.7,0.1-2.6
				c0-9.7-5.9-18.1-14.4-21.7c0.5-2.1,1.1-4.2,1.7-6.1c18.3-61.2,72-54.4,72-54.4c0,4.3-2.4,15.2,11,15.2c10.5,0,11.8-6.7,11.7-10
				c1.7-1.8,2.8-4.2,2.8-6.9v-3.5v-7c2.3,0.5,4.6,1.1,6.8,1.7c30.8,9.1,54.9,33.7,63.4,64.7c0,0.1,0.1,0.2,0.1,0.3
				c0.6,2.2,1.1,4.4,1.5,6.6c0.4,2.2,0.8,4.4,1.1,6.7C218.7,138.1,218.9,141.9,218.9,145.7z M194,152.7c0-5.7-0.8-11.2-2.4-16.5
				c-5.4-18-19.6-32.2-37.5-37.8c0,0,0,0,0,0c-0.1-0.1-0.3-0.1-0.4-0.1c-0.1,0-0.3,0-0.4,0c-0.3,0-0.7,0.1-1,0.2
				c-0.8,0.4-1.3,1.1-1.3,2.1v1.7v0.9c0,3-2.5,5.5-5.5,5.5h-19.2c-3,0-5.5-2.5-5.5-5.5v-0.1v-1.6c0-1.1-0.8-2-1.8-2.2
				c-0.1,0-0.3,0-0.4,0c-0.2,0-0.4,0-0.5,0.1c-0.2,0-0.3,0.1-0.5,0.2c-21.6,8-37,28.9-37,53.2c0,31.3,25.5,56.8,56.8,56.8
				c26.7,0,49.2-18.6,55.2-43.4C193.5,161.8,194,157.3,194,152.7z M102.7,86.3c2.5-1,3.6-3.9,2.6-6.4c-1-2.5-3.9-3.6-6.4-2.6
				c-9.4,4-17.8,9.7-24.9,17.1c-1.9,1.9-1.8,5,0.1,6.9c0.9,0.9,2.1,1.3,3.4,1.3c1.3,0,2.5-0.5,3.5-1.5
				C87.2,94.8,94.5,89.8,102.7,86.3z M71.4,114.3c1.3-2.3,0.5-5.3-1.8-6.6c-2.3-1.3-5.3-0.5-6.6,1.8c-1.4,2.5-2.7,5-3.8,7.6
				c-1,2.5,0.1,5.3,2.6,6.4c0.6,0.3,1.3,0.4,1.9,0.4c1.9,0,3.7-1.1,4.5-3C69.1,118.7,70.2,116.4,71.4,114.3z"/>
			<path class="st4" d="M191.6,136.3c1.6,5.2,2.4,10.7,2.4,16.5c0,4.6-0.5,9-1.6,13.3c-6,24.9-28.5,43.4-55.2,43.4
				c-31.3,0-56.8-25.5-56.8-56.8c0-24.4,15.4-45.2,37-53.2c0.1-0.1,0.3-0.1,0.5-0.2c0.2,0,0.4-0.1,0.5-0.1c0.1,0,0.3,0,0.4,0
				c1.1,0.2,1.8,1.1,1.8,2.2v1.6v0.1c0,3,2.5,5.5,5.5,5.5h19.2c3,0,5.5-2.5,5.5-5.5v-0.9v-1.7c0-0.9,0.5-1.7,1.3-2.1
				c0.3-0.1,0.6-0.2,1-0.2c0.1,0,0.3,0,0.4,0c0.1,0,0.3,0.1,0.4,0.1c0,0,0,0,0,0C172,104.1,186.1,118.3,191.6,136.3z M189.2,158.7
				c0.2-2,0.3-4,0.3-6c0-3-0.3-6-0.8-8.9c-3.2-18.5-16.1-33.7-33.3-40.1c-0.3,5.3-4.7,9.5-10,9.5h-19.2c-1.4,0-2.6-0.3-3.8-0.8
				c-3.2-1.3-5.5-4.2-6.1-7.6c-0.8,0.3-1.5,0.7-2.3,1.1C96.9,114.4,85,132.2,85,152.7c0,28.8,23.4,52.2,52.2,52.2
				c7.4,0,14.5-1.6,20.9-4.4C174.9,193.3,187,177.5,189.2,158.7C189.2,158.7,189.2,158.7,189.2,158.7z"/>
			<path class="st5" d="M189.5,152.7c0,2-0.1,4-0.3,6c0,0,0,0,0,0c-2.2,18.8-14.3,34.5-31,41.9c-44.3,6.4-68.8-20.1-68.8-47.5
				c0-13.5,4.8-24,10.2-31.6c-0.1,0.2-0.2,0.4-0.3,0.7c-0.8,2,0.1,4.2,2.1,5.1c0.5,0.2,1,0.3,1.5,0.3c1.5,0,3-0.9,3.6-2.4
				c1.2-2.9,3.9-5,7-5.4c2.1-0.3,3.6-2.2,3.3-4.4c-0.3-2.1-2.2-3.6-4.4-3.3c-2.7,0.4-5.3,1.4-7.4,3c4.1-4.2,7.8-6.9,9.6-8.1
				c0,3.4,2.2,5.6,2.2,5.6s2.3,0,5.6,0c1.2,0.5,2.5,0.8,3.8,0.8h19.2c5.3,0,9.7-4.2,10-9.5c17.2,6.4,30.1,21.6,33.3,40.1
				C189.2,146.7,189.5,149.7,189.5,152.7z M185.4,142.2c0-1.6-1.3-2.9-2.9-2.9h-4c-0.1,0-0.1,0-0.2,0c-1.2-3.8-4.8-6.5-8.9-6.5
				c-5.2,0-9.4,4.2-9.4,9.4c0,5.2,4.2,9.4,9.4,9.4c4.2,0,7.7-2.7,8.9-6.5c0.1,0,0.1,0,0.2,0h4C184.1,145.1,185.4,143.8,185.4,142.2z
				 M182.8,168c0-4-3.3-7.3-7.3-7.3c-4,0-7.3,3.3-7.3,7.3c0,4,3.3,7.3,7.3,7.3C179.5,175.3,182.8,172,182.8,168z M172.6,126.6
				c1.9-1,2.6-3.4,1.6-5.2c-2.8-5.2-8.1-8.6-14-8.9c-2.1-0.1-3.9,1.6-4,3.7c-0.1,2.1,1.6,3.9,3.7,4c3.1,0.1,6,2,7.5,4.7
				c0.7,1.3,2,2.1,3.4,2.1C171.4,127,172,126.9,172.6,126.6z M160.6,165.3c0.4-0.6,0.1-1.4-0.5-1.8c-1.2-0.7-1.6-2.4-1.7-3
				c-0.1-0.7-0.8-1.2-1.4-1.1c-0.7,0.1-1.2,0.7-1.1,1.5c0,0.1,0.1,0.7,0.4,1.4c-15.1,7-27.5,0.6-27.6,0.5c-0.1-0.1-0.3-0.1-0.4-0.1
				c0.2-0.6,0.3-1.2,0.2-1.8c-0.1-0.7-0.7-1.2-1.4-1.2c-0.7,0.1-1.2,0.7-1.2,1.4c0.1,1.3-1.1,2.7-1.5,3.1c-0.5,0.5-0.6,1.3-0.1,1.8
				c0.3,0.3,0.6,0.4,1,0.4c0.3,0,0.6-0.1,0.9-0.3c0,0,0.5-0.5,1.1-1.2c0.1,0.1,0.2,0.2,0.3,0.2c0.4,0.2,6,3.1,14.3,3.1
				c4.6,0,10-0.9,15.8-3.6c0.4,0.5,0.8,0.9,1.4,1.2c0.2,0.1,0.4,0.2,0.6,0.2C159.9,165.9,160.4,165.7,160.6,165.3z M118.2,143.7
				c0-5.2-4.2-9.4-9.4-9.4c-4.2,0-7.7,2.7-8.9,6.5c-0.1,0-0.1,0-0.2,0h-4c-1.6,0-2.9,1.3-2.9,2.9c0,1.6,1.3,2.9,2.9,2.9h4
				c0.1,0,0.1,0,0.2,0c1.2,3.8,4.8,6.5,8.9,6.5C114,153.1,118.2,148.9,118.2,143.7z M107.7,168c0-4-3.3-7.3-7.3-7.3
				c-4,0-7.3,3.3-7.3,7.3c0,4,3.3,7.3,7.3,7.3C104.4,175.3,107.7,172,107.7,168z"/>
			<path class="st0" d="M182.5,139.3c1.6,0,2.9,1.3,2.9,2.9c0,1.6-1.3,2.9-2.9,2.9h-4c-0.1,0-0.1,0-0.2,0c-1.2,3.8-4.8,6.5-8.9,6.5
				c-5.2,0-9.4-4.2-9.4-9.4c0-5.2,4.2-9.4,9.4-9.4c4.2,0,7.7,2.7,8.9,6.5c0.1,0,0.1,0,0.2,0H182.5z M170.3,141.7
				c0-1.8-1.5-3.3-3.3-3.3c-1.8,0-3.3,1.5-3.3,3.3c0,1.8,1.5,3.3,3.3,3.3C168.8,145,170.3,143.5,170.3,141.7z"/>
			<circle class="st6" cx="175.5" cy="168" r="7.3"/>
			<path class="st0" d="M174.2,121.3c1,1.9,0.3,4.2-1.6,5.2c-0.6,0.3-1.2,0.5-1.8,0.5c-1.4,0-2.7-0.7-3.4-2.1
				c-1.5-2.8-4.4-4.6-7.5-4.7c-2.1-0.1-3.8-1.9-3.7-4c0.1-2.1,1.9-3.8,4-3.7C166.1,112.7,171.5,116.1,174.2,121.3z"/>
			<circle class="st7" cx="166.9" cy="141.7" r="3.3"/>
			<path class="st0" d="M160.1,163.5c0.6,0.3,0.8,1.1,0.5,1.8c-0.2,0.4-0.7,0.7-1.1,0.7c-0.2,0-0.4-0.1-0.6-0.2
				c-0.6-0.3-1-0.7-1.4-1.2c-5.8,2.7-11.2,3.6-15.8,3.6c-8.3,0-13.9-2.9-14.3-3.1c-0.1-0.1-0.2-0.1-0.3-0.2c-0.5,0.7-1,1.2-1.1,1.2
				c-0.2,0.2-0.5,0.3-0.9,0.3c-0.3,0-0.7-0.1-1-0.4c-0.5-0.5-0.4-1.3,0.1-1.8c0.5-0.4,1.6-1.8,1.5-3.1c-0.1-0.7,0.5-1.3,1.2-1.4
				c0.7-0.1,1.3,0.5,1.4,1.2c0.1,0.7,0,1.3-0.2,1.8c0.1,0,0.3,0.1,0.4,0.1c0.1,0.1,12.5,6.5,27.6-0.5c-0.3-0.8-0.4-1.4-0.4-1.4
				c-0.1-0.7,0.4-1.4,1.1-1.5c0.7-0.1,1.4,0.4,1.4,1.1C158.5,161.1,159,162.9,160.1,163.5z"/>
			<path class="st8" d="M180.4,221.3c-15.4,11.3-34.5,17.9-55,17.9c-37.2,0-69.3-21.7-84.3-53.1c-0.2-0.5-0.5-1-0.7-1.5
				c-0.8-1.8-1.6-3.7-2.4-5.6c0,0,0-0.1,0-0.1c-0.8-2.2-1.6-4.4-2.3-6.7c0.4,0,0.9,0,1.3,0c1.8,0,3.5-0.2,5.2-0.6
				c0.1,0,0.3-0.1,0.4-0.1c9.5-2.3,16.7-10.4,17.8-20.2c0.2,2.1,0.6,12.1-3.9,20.7c-1.3,2.5-3.1,5-5.5,7
				C65.3,206.6,100.8,245.3,180.4,221.3z"/>
			<path class="st9" d="M158.2,200.6c-6.4,2.8-13.5,4.4-20.9,4.4c-28.8,0-52.2-23.4-52.2-52.2c0-20.5,11.9-38.3,29.1-46.8l0.5,1
				c-1.8,1.2-5.5,3.9-9.6,8.1c-2.3,1.6-4.2,3.9-5.4,6.5c-5.5,7.6-10.2,18.1-10.2,31.6C89.4,180.5,113.9,207,158.2,200.6z"/>
			<path class="st10" d="M145.3,61.3v3.5c0,2.7-1.1,5.1-2.8,6.9c-1.8,1.9-4.3,3-7.1,3c-2.7,0-5.2-1.1-7-2.9
				c-0.2-0.2-0.5-0.5-0.7-0.7c0.1,0.1,0.1,0.2,0.2,0.2c1.8,1.8,4.3,2.9,7,2.9c0,0,0,0,0,0c0.1,0,0.3,0,0.5,0V46.4V13.9
				c2.7,0,5.2,1.1,7,2.9c1.8,1.8,2.9,4.3,2.9,7v23.6v0.4v6.5V61.3z"/>
			<path class="st8" d="M142.5,71.6c0,3.3-1.2,10-11.7,10c-13.4,0-11-10.9-11-15.2c0,0-53.7-6.8-72,54.4c-0.6,2-1.1,4-1.7,6.1
				c-1.6-0.7-3.3-1.2-5.1-1.5c-1.3-0.2-2.7-0.3-4-0.3c-1,0-1.9,0.1-2.9,0.2c0,0,0,0,0,0c0,0,0,0,0,0c-0.2,0-0.4,0.1-0.6,0.1
				c0.1-0.3,0.1-0.6,0.2-1c0.3-1.3,0.6-2.6,1-3.8c0.2-0.6,0.3-1.2,0.5-1.8c10.8-37.1,44-64.6,84-67c1.9-0.1,3.8-0.2,5.7-0.2
				c0,0,0.1,0,0.1,0v0.5v5.3v6.7c0,2.6,1,5,2.7,6.8c0.2,0.3,0.4,0.5,0.7,0.7c1.8,1.8,4.3,2.9,7,2.9
				C138.2,74.7,140.7,73.5,142.5,71.6z"/>
			<path class="st11" d="M135.4,46.4v27.8c-0.1,0-0.3,0-0.5,0c0,0,0,0,0,0c-2.7,0-5.2-1.1-7-2.9c-0.1-0.1-0.2-0.2-0.2-0.2
				c-1-1.2-1.6-2.5-2-4.1c0,0,0,0,0,0c-0.2-0.8-0.2-1.7-0.2-2.7V59v-6.8v-0.5v-5.8v-0.4V23.8c0-5.5,4.4-9.9,9.9-9.9V46.4z"/>
			<path class="st12" d="M125.7,67c0.3,1.5,1,2.9,2,4.1C126.6,69.9,126,68.5,125.7,67z"/>
			<path class="st8" d="M125.7,67c0.3,1.5,0.9,2.9,2,4.1c-1.7-1.8-2.7-4.1-2.7-6.8v-6.7v-5.3c0.1,0,0.2,0,0.4,0c0,0,0.1,0,0.1,0V59
				v5.3v0.5C125.5,65.5,125.6,66.2,125.7,67C125.7,66.9,125.7,67,125.7,67z"/>
			<path class="st8" d="M125.5,64.3c0,0.9,0.1,1.8,0.2,2.7c-0.1-0.7-0.2-1.4-0.2-2.2V64.3z"/>
			<path class="st8" d="M125.5,51.7v0.5c0,0-0.1,0-0.1,0c-0.1,0-0.2,0-0.4,0v-0.5C125.2,51.7,125.5,51.7,125.5,51.7z"/>
			<path class="st9" d="M122.5,112.5c-3.3,0-5.6,0-5.6,0s-2.2-2.1-2.2-5.6l-0.5-1c0.7-0.4,1.5-0.7,2.3-1.1
				C117,108.3,119.3,111.2,122.5,112.5z"/>
			<path class="st0" d="M116.8,115.4c0.3,2.1-1.2,4.1-3.3,4.4c-3.1,0.4-5.8,2.5-7,5.4c-0.6,1.5-2.1,2.4-3.6,2.4
				c-0.5,0-1-0.1-1.5-0.3c-2-0.8-2.9-3.1-2.1-5.1c0.1-0.2,0.2-0.4,0.3-0.7c1.2-2.6,3.1-4.8,5.4-6.5c2.2-1.6,4.7-2.6,7.4-3
				C114.6,111.8,116.5,113.2,116.8,115.4z"/>
			<path class="st0" d="M108.8,134.3c5.2,0,9.4,4.2,9.4,9.4c0,5.2-4.2,9.4-9.4,9.4c-4.2,0-7.7-2.7-8.9-6.5c-0.1,0-0.1,0-0.2,0h-4
				c-1.6,0-2.9-1.3-2.9-2.9c0-1.6,1.3-2.9,2.9-2.9h4c0.1,0,0.1,0,0.2,0C101.1,137.1,104.6,134.3,108.8,134.3z M114.6,143
				c0-1.8-1.5-3.3-3.3-3.3c-1.8,0-3.3,1.5-3.3,3.3c0,1.8,1.5,3.3,3.3,3.3C113.1,146.3,114.6,144.8,114.6,143z"/>
			<ellipse class="st7" cx="111.3" cy="143" rx="3.3" ry="3.3"/>
			<circle class="st6" cx="100.4" cy="168" r="7.3"/>
			<path class="st13" d="M105.3,80c1,2.5-0.1,5.3-2.6,6.4c-8.2,3.5-15.5,8.5-21.7,14.9c-1,1-2.2,1.5-3.5,1.5c-1.2,0-2.4-0.4-3.4-1.3
				c-1.9-1.9-2-4.9-0.1-6.9c7.1-7.4,15.5-13.2,24.9-17.1C101.4,76.3,104.2,77.5,105.3,80z"/>
			<path class="st13" d="M69.5,107.7c2.3,1.3,3.1,4.3,1.8,6.6c-1.2,2.1-2.3,4.4-3.3,6.6c-0.8,1.8-2.6,3-4.5,3
				c-0.6,0-1.3-0.1-1.9-0.4c-2.5-1-3.6-3.9-2.6-6.4c1.1-2.6,2.4-5.2,3.8-7.6C64.2,107.2,67.2,106.4,69.5,107.7z"/>
			<path class="st1" d="M60.5,148.7c0,0.9,0,1.7-0.1,2.6c-1.1,9.9-8.3,17.9-17.8,20.2c-0.1,0-0.3,0.1-0.4,0.1
				c-1.7,0.4-3.4,0.6-5.2,0.6c-0.4,0-0.9,0-1.3,0c-0.1,0-0.1,0-0.2,0c0-0.1,0.1-0.1,0.1-0.2c0.8-1,1.5-2.1,2.2-3.2
				c3.5-0.1,7-1.2,10-3c1.2-0.8,1.6-2.4,0.8-3.6c-0.8-1.2-2.4-1.6-3.6-0.8c-1.2,0.7-2.4,1.3-3.8,1.7c-0.2,0.1-0.5,0.1-0.7,0.2
				c1.7-4.3,2.6-8.9,2.6-13.7c0-5.6-1.3-11.1-3.7-16.1c-0.2-0.5-0.5-0.9-0.7-1.4c-1.1-2-2.3-3.8-3.7-5.6c-0.3-0.4-0.6-0.8-0.9-1.1
				c0.9-0.1,1.9-0.2,2.9-0.2c1.4,0,2.7,0.1,4,0.3c1.8,0.3,3.5,0.8,5.1,1.5C54.6,130.6,60.5,138.9,60.5,148.7z"/>
			<path class="st13" d="M48.6,162.2c0.8,1.2,0.4,2.8-0.8,3.6c-3,1.9-6.4,2.9-10,3c0.4-0.6,0.7-1.2,1-1.8c0.3-0.6,0.6-1.2,0.9-1.9
				c0.3-0.5,0.5-1.1,0.7-1.6c0-0.1,0.1-0.2,0.1-0.3c0.2-0.1,0.5-0.1,0.7-0.2c1.3-0.4,2.6-0.9,3.8-1.7
				C46.3,160.6,47.9,161,48.6,162.2z"/>
			<path class="st2" d="M43.3,149.6c0,4.7-0.9,9.4-2.6,13.7c-1,0.2-2,0.4-3,0.4c0.8-1.7,1.4-3.6,1.9-5.4c0.7-2.8,1.1-5.7,1.1-8.6
				c0-3.7-0.6-7.3-1.7-10.7c-0.8-2.4-1.8-4.7-3.1-6.8c-0.7-1.2-1.5-2.3-2.4-3.4c-0.7-0.9-1.5-1.8-2.3-2.7c0.8-0.2,1.6-0.4,2.4-0.5
				c0.2,0,0.4-0.1,0.6-0.1c0,0,0,0,0,0c0,0,0,0,0,0c0.3,0.4,0.6,0.7,0.9,1.1c1.4,1.7,2.7,3.6,3.7,5.6c0.3,0.5,0.5,0.9,0.7,1.4
				C42,138.4,43.3,143.9,43.3,149.6z"/>
			<path class="st14" d="M40.6,163.2c0,0.1-0.1,0.2-0.1,0.3c-0.2,0.6-0.5,1.1-0.7,1.6c-0.3,0.6-0.6,1.2-0.9,1.9
				c-0.3,0.6-0.7,1.2-1,1.8c-0.2,0-0.4,0-0.6,0c-0.8,0-1.6,0-2.4-0.1c0.6-0.8,1.1-1.7,1.6-2.6c0.1-0.2,0.2-0.4,0.3-0.7
				c0.3-0.6,0.6-1.2,0.9-1.8C38.7,163.6,39.7,163.5,40.6,163.2z"/>
			<path class="st1" d="M38.9,138.8c1.1,3.4,1.7,7.1,1.7,10.7c0,2.9-0.4,5.8-1.1,8.6c-0.5,1.9-1.1,3.7-1.9,5.4c-0.1,0-0.3,0-0.5,0
				c-3.3,0-6.5-1.1-9.1-3.1c-0.5-0.4-1.2-0.6-1.9-0.5c-0.7,0.1-1.3,0.4-1.8,1c-0.9,1.1-0.7,2.8,0.5,3.6c0.8,0.6,1.6,1.1,2.4,1.6
				c2.3,1.3,4.9,2.2,7.5,2.5c0,0-0.1,0.1-0.1,0.1c-0.7,1-1.5,2-2.3,3c-1.5-0.3-2.9-0.7-4.2-1.2c0,0-0.1,0-0.1,0
				c-0.2-0.1-0.5-0.2-0.7-0.3c-1-0.4-2-1-2.9-1.5c-2.8-4.2-4.5-8.3-5.4-12.2c1.2-0.8,2.1-3.9,2.1-7.6c0-3.4-0.8-6.3-1.8-7.4
				c1.6-6.2,4.8-11.1,6.9-13.8c0.1-0.1,0.2-0.1,0.3-0.1c0.1,0,0.2-0.1,0.2-0.1c1.3-0.6,2.7-1.1,4.2-1.5c0.8,0.8,1.6,1.7,2.3,2.7
				c0.9,1.1,1.6,2.2,2.4,3.4C37.1,134.2,38.1,136.5,38.9,138.8z"/>
			<path class="st2" d="M37.2,168.8c0.2,0,0.4,0,0.6,0c-0.7,1.1-1.4,2.2-2.2,3.2c0,0.1-0.1,0.1-0.1,0.2c-0.5,0-1-0.1-1.6-0.1
				c-0.5-0.1-1-0.1-1.5-0.2c0.8-1,1.6-1.9,2.3-3c0,0,0.1-0.1,0.1-0.1C35.6,168.8,36.4,168.8,37.2,168.8z"/>
			<path class="st13" d="M37.2,163.6c0.1,0,0.3,0,0.5,0c-0.3,0.6-0.6,1.2-0.9,1.8c-0.1,0.2-0.2,0.4-0.3,0.7c-0.5,0.9-1,1.8-1.6,2.6
				c-2.7-0.3-5.2-1.1-7.5-2.5c-0.8-0.5-1.6-1-2.4-1.6c-1.1-0.9-1.3-2.5-0.5-3.6c0.4-0.6,1.1-0.9,1.8-1c0.6-0.1,1.3,0.1,1.9,0.5
				C30.7,162.6,33.9,163.6,37.2,163.6z"/>
			<path class="st1" d="M26.5,127.7c-2.1,2.7-5.3,7.6-6.9,13.8c-0.3-0.3-0.6-0.5-0.9-0.5c-1.5,0-2.8,3.5-2.8,7.8
				c0,4.3,1.2,7.8,2.8,7.8c0.2,0,0.4-0.1,0.6-0.2c0.9,3.9,2.6,8,5.4,12.2c-6.7-4.1-11.1-11.5-11.1-20
				C13.5,139.5,18.8,131.5,26.5,127.7z"/>
			<path class="st10" d="M19.5,141.5c1.1,1.1,1.8,4,1.8,7.4c0,3.7-0.9,6.8-2.1,7.6c-0.2,0.1-0.4,0.2-0.6,0.2c-1.5,0-2.8-3.5-2.8-7.8
				c0-4.3,1.2-7.8,2.8-7.8C18.9,141,19.2,141.2,19.5,141.5z"/>
		</g>
		<g>
		</g>
	</g>
</g>
</svg>
